<svg width="29" height="24" viewBox="0 0 29 24" fill="none" xmlns="http://www.w3.org/2000/svg">
<path d="M2 12C2 6.47715 6.47715 2 12 2V2C17.5228 2 22 6.47715 22 12V22H12C6.47715 22 2 17.5228 2 12V12Z" fill="white"/>
<path fill-rule="evenodd" clip-rule="evenodd" d="M20.2667 12V20.2667H12C7.43445 20.2667 3.73333 16.5656 3.73333 12C3.73333 7.43445 7.43445 3.73333 12 3.73333C16.5656 3.73333 20.2667 7.43445 20.2667 12ZM2 12C2 6.47715 6.47715 2 12 2C17.5228 2 22 6.47715 22 12V22H12C6.47715 22 2 17.5228 2 12ZM5.97547 12.396C5.97547 14.4595 7.36053 16.1979 9.57947 16.1979C11.4027 16.1979 12.6323 14.9966 12.9291 13.4278H11.1341C10.908 14.1486 10.3285 14.5867 9.57947 14.5867C8.46293 14.5867 7.728 13.7104 7.728 12.396C7.728 11.0816 8.46293 10.2054 9.57947 10.2054C10.3003 10.2054 10.8656 10.6152 11.1059 11.2936H12.9149C12.5899 9.76722 11.3744 8.59415 9.57947 8.59415C7.36053 8.59415 5.97547 10.3326 5.97547 12.396ZM15.3398 8.79202H13.6438V16H15.4105V12.2406C15.4105 11.5339 15.6083 11.0675 15.9475 10.7848C16.2443 10.5163 16.6401 10.375 17.2761 10.375H17.7283V8.70722H17.2902C16.3574 8.70722 15.7355 9.04642 15.3398 9.56935V8.79202Z" fill="#222222"/>
<path d="M29 18C29 21.3137 26.3137 24 23 24C19.6863 24 17 21.3137 17 18C17 14.6863 19.6863 12 23 12C26.3137 12 29 14.6863 29 18Z" fill="#D31510"/>
<path d="M22.0402 13.9211C22.0355 13.8717 22.0447 13.8221 22.0667 13.7777C22.0887 13.7334 22.1226 13.6962 22.1646 13.6703C22.4258 13.5636 22.7042 13.5059 22.986 13.5002C23.2657 13.4967 23.5442 13.5399 23.8099 13.628C23.8551 13.6532 23.8926 13.6902 23.9186 13.7351C23.9446 13.7801 23.9581 13.8312 23.9576 13.8832V14.7933C23.9576 15.865 23.7446 18.839 23.7054 19.2312C23.7051 19.2832 23.6842 19.3328 23.6475 19.3693C23.6108 19.4057 23.5612 19.426 23.5096 19.4257L23.4887 19.4244H22.4832C22.4325 19.426 22.383 19.4091 22.3438 19.3768C22.3046 19.3445 22.2783 19.299 22.2698 19.2487C22.2329 18.742 22.0402 15.8683 22.0402 14.8315V13.9211ZM23 22.1213C22.8666 22.1332 22.7322 22.1165 22.6056 22.0725C22.4791 22.0284 22.3632 21.9579 22.2656 21.8656C22.168 21.7734 22.0909 21.6614 22.0393 21.537C21.9878 21.4126 21.9629 21.2787 21.9664 21.1439C21.9643 21.0142 21.9876 20.8853 22.035 20.7646C22.0824 20.6439 22.1529 20.5338 22.2426 20.4406C22.3322 20.3473 22.4393 20.2728 22.5576 20.2211C22.6759 20.1695 22.8032 20.1419 22.9321 20.1397C22.9547 20.1394 22.9774 20.1398 23 20.141C23.1273 20.1327 23.255 20.1498 23.3758 20.1912C23.4966 20.2326 23.608 20.2976 23.7039 20.3823C23.7997 20.4671 23.878 20.5701 23.9343 20.6853C23.9906 20.8005 24.0238 20.9257 24.032 21.0539C24.0339 21.0839 24.0344 21.1139 24.0336 21.1439C24.0371 21.2787 24.0122 21.4126 23.9607 21.537C23.9091 21.6614 23.832 21.7734 23.7344 21.8656C23.6368 21.9579 23.5209 22.0284 23.3944 22.0725C23.2678 22.1165 23.1334 22.1332 23 22.1213Z" fill="white"/>
</svg>
