<?xml version="1.0" encoding="UTF-8"?>
<svg width="20px" height="20px" viewBox="0 0 20 20" version="1.1" xmlns="http://www.w3.org/2000/svg" xmlns:xlink="http://www.w3.org/1999/xlink">
    <title>S_BadgeInfoCircle_18_N_D@2x</title>
    <g id="Page-1" stroke="none" stroke-width="1" fill="none" fill-rule="evenodd">
        <g id="S_BadgeInfoCircle_18_N_D@2x" fill-rule="nonzero">
            <circle id="Oval" fill="#FFFFFF" cx="10" cy="10" r="10"></circle>
            <path d="M10.0006389,18.8888892 C14.9096812,18.888536 18.8888889,14.9088016 18.8888889,9.99975928 C18.8888889,5.09071699 14.9091997,1.11111114 10.0001574,1.11111114 C5.09111512,1.11111114 1.11141794,5.09040217 1.11111087,9.99944444 C1.11055686,12.357256 2.04695409,14.6186557 3.7141865,16.2858724 C5.3814189,17.9530892 7.64282733,18.8894652 10.0006389,18.8888892 Z" id="Path" fill="#0F65D0"></path>
            <path d="M9.98894444,7.77780156 C10.7599631,7.7738467 11.3842293,7.15017017 11.3888889,6.37915556 C11.3852637,5.88272922 11.1169577,5.42598234 10.685118,5.18110136 C10.2532783,4.93622037 9.72357269,4.94044318 9.29569199,5.19217786 C8.86781129,5.44391254 8.60682127,5.90487897 8.61111111,6.4013 C8.60931677,6.76714704 8.75394838,7.11850918 9.0127717,7.37707786 C9.27159502,7.63564654 9.62309935,7.77993223 9.98894444,7.77780156 L9.98894444,7.77780156 Z" id="Path" fill="#FFFFFF"></path>
            <path d="M11.7635667,14.4444444 L11.1111111,14.4444444 L11.1111111,8.88888889 L8.24343333,8.88888889 C7.98709725,8.89199209 7.78023345,9.09937912 7.77777778,9.35572222 L7.77777778,9.57011667 C7.77302774,9.68603585 7.8172025,9.79861682 7.89951699,9.88037343 C7.98183148,9.96213005 8.09471025,10.0055382 8.21059444,10 L8.88888889,10 L8.88888889,14.4444444 L8.24827778,14.4444444 C7.99134242,14.4458643 7.78248881,14.6520595 7.77777778,14.9089556 L7.77777778,15.0941722 C7.78086712,15.3493614 7.9882265,15.5548183 8.24343333,15.5555706 L11.7635667,15.5555706 C11.8859869,15.5565512 12.0036433,15.5081722 12.0899533,15.4213489 C12.1762633,15.3345256 12.2239438,15.2165844 12.2222222,15.0941722 L12.2222222,14.9154889 C12.2245048,14.7920173 12.1773148,14.6727604 12.0911635,14.5842821 C12.0050123,14.4958038 11.8870553,14.4454528 11.7635667,14.4444444 L11.7635667,14.4444444 Z" id="Path" fill="#FFFFFF"></path>
        </g>
    </g>
</svg>