<svg width="29" height="24" viewBox="0 0 29 24" fill="none" xmlns="http://www.w3.org/2000/svg">
<path d="M2 12C2 6.47715 6.47715 2 12 2V2C17.5228 2 22 6.47715 22 12V22H12C6.47715 22 2 17.5228 2 12V12Z" fill="white"/>
<path fill-rule="evenodd" clip-rule="evenodd" d="M20.2667 12V20.2667H12C7.43445 20.2667 3.73333 16.5656 3.73333 12C3.73333 7.43445 7.43445 3.73333 12 3.73333C16.5656 3.73333 20.2667 7.43445 20.2667 12ZM2 12C2 6.47715 6.47715 2 12 2C17.5228 2 22 6.47715 22 12V22H12C6.47715 22 2 17.5228 2 12ZM5.97547 12.396C5.97547 14.4595 7.36053 16.1979 9.57947 16.1979C11.4027 16.1979 12.6323 14.9966 12.9291 13.4278H11.1341C10.908 14.1486 10.3285 14.5867 9.57947 14.5867C8.46293 14.5867 7.728 13.7104 7.728 12.396C7.728 11.0816 8.46293 10.2054 9.57947 10.2054C10.3003 10.2054 10.8656 10.6152 11.1059 11.2936H12.9149C12.5899 9.76722 11.3744 8.59415 9.57947 8.59415C7.36053 8.59415 5.97547 10.3326 5.97547 12.396ZM15.3398 8.79202H13.6438V16H15.4105V12.2406C15.4105 11.5339 15.6083 11.0675 15.9475 10.7848C16.2443 10.5163 16.6401 10.375 17.2761 10.375H17.7283V8.70722H17.2902C16.3574 8.70722 15.7355 9.04642 15.3398 9.56935V8.79202Z" fill="#222222"/>
<path d="M29 18C29 21.3137 26.3137 24 23 24C19.6863 24 17 21.3137 17 18C17 14.6863 19.6863 12 23 12C26.3137 12 29 14.6863 29 18Z" fill="#E46F00"/>
<path fill-rule="evenodd" clip-rule="evenodd" d="M20.8826 13.8587C21.5274 13.517 22.2488 13.3458 22.9784 13.3613C24.6325 13.3613 25.5423 14.3425 25.5423 15.593C25.5529 16.3448 25.2298 17.0626 24.66 17.5532C24.6261 17.5863 24.5924 17.6191 24.559 17.6517C24.0601 18.138 23.6121 18.5748 23.6121 18.9736C23.6138 19.2494 23.6901 19.5196 23.8327 19.7557C23.8493 19.7749 23.8522 19.8025 23.8399 19.8247C23.8276 19.8469 23.8027 19.8592 23.7776 19.8553H22.5782C22.5131 19.8631 22.4478 19.8424 22.3992 19.7984C22.1822 19.5178 22.0655 19.1724 22.068 18.8176C22.068 18.1497 22.4682 17.7241 23.1299 17.0416C23.5846 16.5728 23.8467 16.2745 23.8467 15.8339C23.8467 15.3224 23.5155 14.9673 22.6747 14.9673C22.0643 14.9658 21.4646 15.1275 20.9376 15.4356C20.9165 15.451 20.8885 15.4532 20.8653 15.4413C20.842 15.4294 20.8275 15.4054 20.8276 15.3792V14.001C20.8276 13.9442 20.8276 13.8878 20.8826 13.8587ZM23.7764 22.3577C23.9512 22.1774 24.0375 21.929 24.0119 21.6792C24.0121 21.6701 24.0121 21.661 24.0119 21.652C24.0044 21.1512 23.5923 20.7513 23.0915 20.7588C22.5907 20.7663 22.1908 21.1784 22.1983 21.6792C22.1774 21.928 22.2652 22.1737 22.4391 22.353C22.613 22.5322 22.856 22.6274 23.1053 22.6139C23.3559 22.6318 23.6015 22.538 23.7764 22.3577Z" fill="white"/>
</svg>
