<svg width="24" height="24" viewBox="0 0 24 24" fill="none" xmlns="http://www.w3.org/2000/svg">
<path d="M2 12C2 6.47715 6.47715 2 12 2V2C17.5228 2 22 6.47715 22 12V22H12C6.47715 22 2 17.5228 2 12V12Z" fill="white"/>
<path fill-rule="evenodd" clip-rule="evenodd" d="M20.2667 12V20.2667H12C7.43445 20.2667 3.73333 16.5656 3.73333 12C3.73333 7.43445 7.43445 3.73333 12 3.73333C16.5656 3.73333 20.2667 7.43445 20.2667 12ZM2 12C2 6.47715 6.47715 2 12 2C17.5228 2 22 6.47715 22 12V22H12C6.47715 22 2 17.5228 2 12ZM5.97547 12.396C5.97547 14.4595 7.36053 16.1979 9.57947 16.1979C11.4027 16.1979 12.6323 14.9966 12.9291 13.4278H11.1341C10.908 14.1486 10.3285 14.5867 9.57947 14.5867C8.46293 14.5867 7.728 13.7104 7.728 12.396C7.728 11.0816 8.46293 10.2054 9.57947 10.2054C10.3003 10.2054 10.8656 10.6152 11.1059 11.2936H12.9149C12.5899 9.76722 11.3744 8.59415 9.57947 8.59415C7.36053 8.59415 5.97547 10.3326 5.97547 12.396ZM15.3398 8.79202H13.6438V16H15.4105V12.2406C15.4105 11.5339 15.6083 11.0675 15.9475 10.7848C16.2443 10.5163 16.6401 10.375 17.2761 10.375H17.7283V8.70722H17.2902C16.3574 8.70722 15.7355 9.04642 15.3398 9.56935V8.79202Z" fill="#222222"/>
</svg>
