<svg id="icon_app_Adobe" data-name="icon/app/Adobe" xmlns="http://www.w3.org/2000/svg" xmlns:xlink="http://www.w3.org/1999/xlink" width="16" height="16" viewBox="0 0 16 16">
  <defs>
    <clipPath id="clip-path">
      <path id="Fill_10" data-name="Fill 10" d="M13.21,16H2.79A2.79,2.79,0,0,1,0,13.21V2.79A2.79,2.79,0,0,1,2.79,0H13.21A2.79,2.79,0,0,1,16,2.79V13.21A2.79,2.79,0,0,1,13.21,16" fill="#fff"/>
    </clipPath>
  </defs>
  <g id="Group_5" data-name="Group 5">
    <path id="Fill_10-2" data-name="Fill 10" d="M13.21,16H2.79A2.79,2.79,0,0,1,0,13.21V2.79A2.79,2.79,0,0,1,2.79,0H13.21A2.79,2.79,0,0,1,16,2.79V13.21A2.79,2.79,0,0,1,13.21,16" fill="#fff"/>
    <g id="Mask_Group_5" data-name="Mask Group 5" clip-path="url(#clip-path)">
      <path id="Shape" d="M12,0h6.667V16Zm-.849,16-1.3-3.185H6.667L9.652,6,14,16ZM0,0H6.667L0,16Z" transform="translate(-1.333)" fill="#ed2224"/>
    </g>
  </g>
</svg>
