<svg xmlns="http://www.w3.org/2000/svg" width="16" height="16" viewBox="0 0 16 16"><path d="M13.21,16H2.79A2.79,2.79,0,0,1,0,13.21V2.79A2.79,2.79,0,0,1,2.79,0H13.21A2.79,2.79,0,0,1,16,2.79V13.21A2.79,2.79,0,0,1,13.21,16"/><path d="M6.409,7.1a1.6,1.6,0,0,1-.4-1.207V3.143H5.346a.09.09,0,0,1-.088-.1V1.959a.088.088,0,0,1,.1-.1h.664c0-.1,0-.2.011-.326s.017-.245.028-.371.022-.244.033-.354S6.117.6,6.132.52a.117.117,0,0,1,.1-.1L7.526.254c.059-.014.089.008.089.067C7.608.41,7.6.513,7.593.631s-.013.245-.017.382-.007.278-.011.426-.005.288-.005.421H8.578a.078.078,0,0,1,.088.089V3.066q0,.067-.077.077H7.549V5.512a.909.909,0,0,0,.127.537.554.554,0,0,0,.47.172,1.551,1.551,0,0,0,.188-.011c.059-.007.122-.019.188-.033a.068.068,0,0,1,.077.077v.919q0,.121-.077.144a2.191,2.191,0,0,1-.465.122,3.69,3.69,0,0,1-.52.033A1.582,1.582,0,0,1,6.409,7.1ZM.958,7.372A3.11,3.11,0,0,1,.11,7.084a.186.186,0,0,1-.077-.177V5.59a.065.065,0,0,1,.028-.061.053.053,0,0,1,.061.005,3.768,3.768,0,0,0,.985.431,3.808,3.808,0,0,0,1.018.144,1.6,1.6,0,0,0,.9-.194A.573.573,0,0,0,3.3,5.435a.641.641,0,0,0-.221-.476A2.814,2.814,0,0,0,2.291,4.5l-.554-.232a4.407,4.407,0,0,1-.847-.448,2.387,2.387,0,0,1-.537-.5,1.616,1.616,0,0,1-.277-.559A2.4,2.4,0,0,1,0,2.147a2.063,2.063,0,0,1,.172-.836,1.948,1.948,0,0,1,.5-.686,2.359,2.359,0,0,1,.83-.459A3.669,3.669,0,0,1,2.668,0a6.682,6.682,0,0,1,.979.067,2.359,2.359,0,0,1,.748.221A.16.16,0,0,1,4.46.431v1.24a.1.1,0,0,1-.022.061q-.022.028-.077-.005a2.589,2.589,0,0,0-.769-.277,4.68,4.68,0,0,0-.935-.089,1.571,1.571,0,0,0-.9.188.56.56,0,0,0-.254.464.614.614,0,0,0,.221.46,2.857,2.857,0,0,0,.841.448l.409.166a5.311,5.311,0,0,1,.913.476,2.576,2.576,0,0,1,.576.515,1.673,1.673,0,0,1,.3.575,2.276,2.276,0,0,1,.088.637,2.059,2.059,0,0,1-.193.9,1.893,1.893,0,0,1-.559.686,2.688,2.688,0,0,1-.88.437,4.006,4.006,0,0,1-1.156.155A5.622,5.622,0,0,1,.958,7.372Z" transform="translate(3.667 4.133)" fill="#fff"/></svg>