<?xml version="1.0" encoding="UTF-8"?>
<svg width="24px" height="24px" viewBox="0 0 24 24" version="1.1" xmlns="http://www.w3.org/2000/svg" xmlns:xlink="http://www.w3.org/1999/xlink">
    <title>app/Be</title>
    <g id="app/Be" stroke="none" stroke-width="1" fill="none" fill-rule="evenodd">
        <g id="Group-2" fill="#000000">
            <path d="M19.8156734,24 L4.18429961,24 C1.87337514,24 0,22.1266249 0,19.8157004 L0,4.18432656 C0,1.87337514 1.87337514,0 4.18429961,0 L19.8156734,0 C22.1265979,0 24,1.87337514 24,4.18432656 L24,19.8157004 C24,22.1266249 22.1265979,24 19.8156734,24" id="Fill-10"></path>
        </g>
        <path d="M17.6264134,9.72628227 C18.4179585,9.9037806 19.2265204,10.5445298 19.6037244,11.4375866 C19.9287545,12.2070314 20.0113766,13.0115799 19.9419184,13.8805565 L14.8406475,13.8805565 C14.7278448,14.449707 15.0576375,15.1215465 15.5964468,15.3866435 C16.2425472,15.7045565 16.9064134,15.6807973 17.5567946,15.395687 C17.8924201,15.2485298 18.0070421,15.062202 18.1676308,14.5381619 L19.8716575,14.5381619 C19.8731023,15.3207706 19.6293565,15.9588977 19.0374635,16.4435532 C18.5989886,16.8026702 18.0819585,16.9919946 17.5331425,17.0869779 C16.744594,17.2234328 15.9553498,17.2124629 15.1771826,17.0085833 C14.0392562,16.7105766 13.2726475,16.0007973 12.9058247,14.8842756 C12.4782662,13.5828709 12.6346274,12.3309645 13.3363799,11.1644629 C13.9792161,10.0958876 14.9944401,9.63397458 16.200808,9.58891773 C16.6745472,9.57125886 17.1636441,9.62161338 17.6264134,9.72628227 Z M9.10501137,7.05347562 C9.68427559,7.05241472 10.2425632,7.14322408 10.7466435,7.43989298 C11.6941753,7.99764548 11.9947505,8.87962542 11.9281284,9.91834114 C11.877988,10.7015385 11.4982154,11.259291 10.7277538,11.5116522 C10.6970916,11.5217124 10.671406,11.5470769 10.618697,11.5813779 C11.4820548,11.6795184 11.9350849,12.1992241 12.1536268,12.9609097 C12.3311786,13.579612 12.3404361,14.2105151 12.1986836,14.8363344 C11.9496401,15.9361605 11.2061485,16.5489766 10.1573191,16.8255786 C9.85085753,16.9063813 9.52604147,16.9510635 9.20925217,16.9534181 C8.88368696,16.9557898 8.4890031,16.957033 8.0641522,16.9574956 L7.18576889,16.9574833 C7.11114193,16.9574127 7.03639831,16.9573269 6.96171838,16.9572274 L6.51584565,16.9564802 C5.63139921,16.9547102 4.80805869,16.951442 4.35743683,16.9494599 L4.16462845,16.9485889 C4.13815125,16.9484659 4.11462304,16.9483551 4.09422414,16.948258 L3.99999465,16.9477993 L3.99999465,16.9477993 L3.99999465,7.06964548 L4.04207706,7.06948862 C4.05586507,7.06943736 4.07292047,7.06937406 4.09306367,7.06929949 L4.2495397,7.06872299 C4.72617976,7.0669745 5.81675469,7.06303758 6.91511321,7.05951795 L7.35343494,7.05813853 C7.86194206,7.05656958 8.35454344,7.05516718 8.76963614,7.05419613 L9.10501137,7.05347562 L9.10501137,7.05347562 Z M6.48052977,12.5580736 C6.41208829,12.5581271 6.34370033,12.5674916 6.26343278,12.5733779 L6.26343278,15.1854448 C7.26115853,15.1854448 8.22939933,15.2010702 9.19678395,15.1788629 C9.6756602,15.1678395 10.0121418,14.8565619 10.1269244,14.3983946 C10.2172522,14.0379398 10.2109378,13.6757726 10.097493,13.3199197 C9.93963344,12.82499 9.58372709,12.560214 9.06653645,12.5583411 C8.2045699,12.5552375 7.34249632,12.5571104 6.48052977,12.5580736 Z M16.5327946,11.0206234 C15.5241525,11.0102957 14.8788013,11.7833258 14.8143732,12.5447438 L18.0235237,12.5447438 C17.9985873,11.6024562 17.4214635,11.0297204 16.5327946,11.0206234 Z M8.97010836,8.81070234 C8.1616,8.83317726 7.35196789,8.81621405 6.54281739,8.81728428 C6.44965351,8.8173913 6.35643612,8.82584615 6.25035592,8.83103679 L6.25080401,10.8607893 L6.25080401,10.8607893 C6.25080401,10.9034381 6.25647625,10.946087 6.26145284,11.0159732 C7.23424214,11.0159732 8.17636923,11.0225552 9.11833579,11.0124415 C9.45005485,11.0088562 9.6898408,10.8147157 9.74854314,10.4974983 C9.80906488,10.1704883 9.83491104,9.82485619 9.79991438,9.49549164 C9.75806823,9.10212709 9.48756656,8.79630769 8.97010836,8.81070234 Z M18.4246689,7.65423411 L18.4246689,8.84149833 L14.377204,8.84149833 L14.377204,7.65423411 L18.4246689,7.65423411 Z" id="Combined-Shape" fill="#FFFFFF"></path>
    </g>
</svg>