<?xml version="1.0" encoding="UTF-8"?>
<svg width="24px" height="24px" viewBox="0 0 24 24" version="1.1" xmlns="http://www.w3.org/2000/svg" xmlns:xlink="http://www.w3.org/1999/xlink">
    <title>app/FB</title>
    <g id="app/FB" stroke="none" stroke-width="1" fill="none" fill-rule="evenodd">
        <path d="M19.8156734,24 L4.18429961,24 C1.87337514,24 0,22.1266249 0,19.8157004 L0,4.18432656 C0,1.87337514 1.87337514,0 4.18429961,0 L19.8156734,0 C22.1265979,0 24,1.87337514 24,4.18432656 L24,19.8157004 C24,22.1266249 22.1265979,24 19.8156734,24" id="Fill-10" fill="#3A5996"></path>
        <rect id="Rectangle" x="0" y="0" width="24" height="24"></rect>
        <path d="M17.3589643,4 C14.743823,4 12.9539436,5.66617255 12.9539436,8.70006918 L12.9539436,11.3248345 L9.99881411,11.3248345 L9.99881411,14.8745924 L12.9539436,14.8745924 L12.9539436,24 L16.4763788,24 L16.4763788,14.8736041 L19.4236016,14.8736041 L19.8693419,11.3238462 L16.4763788,11.3238462 L16.4763788,9.04990612 C16.4763788,8.02510129 16.7600317,7.33333333 18.1852146,7.33333333 L19.9988141,7.33333333 L19.9988141,4.14131831 C19.3843064,4.07326966 18.5043564,4.02616356 17.3589643,4 Z" id="Path" fill="#FFFFFF"></path>
    </g>
</svg>