<svg id="Layer_1" data-name="Layer 1" xmlns="http://www.w3.org/2000/svg" xmlns:xlink="http://www.w3.org/1999/xlink"
    width="18" height="18" viewBox="0 0 35.36 35.36">
    <defs>
        <style>
            .instagram-path {
                fill: url(#instagram-gradient);
            }
        </style>
        <linearGradient id="instagram-gradient" x1="2.97" y1="32.39" x2="32.39" y2="2.97"
            gradientUnits="userSpaceOnUse">
            <stop offset="0" stop-color="#fdca1d" />
            <stop offset="0.51" stop-color="#f0000f" />
            <stop offset="0.99" stop-color="#bf01a1" />
        </linearGradient>
    </defs>
    <path class="instagram-path"
        d="M32.07,24.82a9.92,9.92,0,0,1-.61,3.29,5.82,5.82,0,0,1-3.36,3.35,9.79,9.79,0,0,1-3.28.61c-1.86.08-2.42.1-7.14.1s-5.28,0-7.14-.1a9.92,9.92,0,0,1-3.29-.61,5.49,5.49,0,0,1-2-1.32,5.49,5.49,0,0,1-1.32-2,9.92,9.92,0,0,1-.61-3.29C3.2,23,3.18,22.4,3.18,17.68s0-5.28.11-7.14A9.92,9.92,0,0,1,3.9,7.25a5.49,5.49,0,0,1,1.32-2,5.49,5.49,0,0,1,2-1.32,9.66,9.66,0,0,1,3.29-.61c1.86-.09,2.42-.1,7.14-.1s5.28,0,7.14.1a9.53,9.53,0,0,1,3.28.61,5.45,5.45,0,0,1,2,1.32,5.49,5.49,0,0,1,1.32,2,9.92,9.92,0,0,1,.61,3.29c.09,1.86.1,2.42.1,7.14s0,5.28-.1,7.14ZM34.43,6.1a8.67,8.67,0,0,0-2-3.13,8.55,8.55,0,0,0-3.13-2A12.73,12.73,0,0,0,25,.11C23.08,0,22.48,0,17.68,0s-5.4,0-7.29.11A12.73,12.73,0,0,0,6.1.93,8.55,8.55,0,0,0,3,3a8.55,8.55,0,0,0-2,3.13,12.73,12.73,0,0,0-.82,4.29C0,12.28,0,12.88,0,17.68S0,23.08.11,25a12.73,12.73,0,0,0,.82,4.29,8.55,8.55,0,0,0,2,3.13,8.67,8.67,0,0,0,3.13,2,12.73,12.73,0,0,0,4.29.82c1.89.09,2.49.11,7.29.11s5.4,0,7.29-.11a12.73,12.73,0,0,0,4.29-.82,9.06,9.06,0,0,0,5.17-5.17A12.73,12.73,0,0,0,35.25,25c.09-1.89.11-2.49.11-7.29s0-5.4-.11-7.29a12.73,12.73,0,0,0-.82-4.29ZM29.24,8.24a2.12,2.12,0,1,1-2.12-2.12,2.12,2.12,0,0,1,2.12,2.12ZM17.68,23.57a5.89,5.89,0,1,1,5.89-5.89,5.89,5.89,0,0,1-5.89,5.89Zm0-15a9.08,9.08,0,1,0,9.08,9.08A9.08,9.08,0,0,0,17.68,8.6Z" />
</svg>