<svg width="16" height="16" viewBox="0 0 16 16" fill="none" xmlns="http://www.w3.org/2000/svg">
<g id="App/Claim Generator/Lightroom" clip-path="url(#clip0_69_30972)">
<g id="Group 2">
<path id="Fill 10" fill-rule="evenodd" clip-rule="evenodd" d="M13.2104 16H2.78953C1.24892 16 0 14.7511 0 13.2105V2.78955C0 1.24892 1.24892 0 2.78953 0H13.2104C14.7511 0 16 1.24892 16 2.78955V13.2105C16 14.7511 14.7511 16 13.2104 16" fill="#071E34"/>
</g>
<path id="Lr" fill-rule="evenodd" clip-rule="evenodd" d="M8.11468 11.577C8.10752 11.6367 8.07171 11.6666 8.00724 11.6666H3.77419C3.70256 11.6666 3.66675 11.6255 3.66675 11.5434V4.44521C3.66675 4.37057 3.6954 4.33325 3.7527 4.33325H5.08493C5.13507 4.33325 5.16014 4.36311 5.16014 4.42282V10.2559H8.23286C8.29733 10.2559 8.3224 10.2895 8.30807 10.3567L8.11468 11.577ZM10.6037 11.577C10.6037 11.6367 10.5714 11.6666 10.507 11.6666H9.21771C9.14609 11.6666 9.11027 11.633 9.11027 11.5658V7.70323C9.11027 7.46438 9.10669 7.19941 9.09953 6.90832C9.09237 6.61722 9.07804 6.37464 9.05656 6.18058C9.05656 6.12833 9.07804 6.10221 9.12102 6.10221H10.2921C10.3566 6.10221 10.3995 6.1358 10.421 6.20297C10.4497 6.27761 10.4747 6.36904 10.4962 6.47727C10.5177 6.5855 10.532 6.70306 10.5392 6.82994C10.7183 6.61349 10.951 6.41943 11.2375 6.24776C11.524 6.07608 11.8607 5.99025 12.2475 5.99025C12.3048 5.99025 12.3334 6.02011 12.3334 6.07982V7.45692C12.3334 7.50916 12.3012 7.53529 12.2367 7.53529C11.8499 7.52036 11.5115 7.56328 11.2214 7.66404C10.9313 7.7648 10.729 7.88236 10.6144 8.01671L10.6037 11.577Z" fill="#54A7F7"/>
</g>
<defs>
<clipPath id="clip0_69_30972">
<rect width="16" height="16" fill="white"/>
</clipPath>
</defs>
</svg>
