<?xml version="1.0" encoding="UTF-8"?>
<svg width="24px" height="24px" viewBox="0 0 24 24" version="1.1" xmlns="http://www.w3.org/2000/svg" xmlns:xlink="http://www.w3.org/1999/xlink">
    <title>app/TruePic</title>
    <defs>
        <polygon id="path-1" points="0 0 20.9679667 0 20.9679667 17.9911084 0 17.9911084"></polygon>
    </defs>
    <g id="app/TruePic" stroke="none" stroke-width="1" fill="none" fill-rule="evenodd">
        <g id="Group-16">
            <path d="M11,18 C10.3252174,18 9.67043478,17.8676087 9.05347826,17.6067391 C8.61130435,17.4195652 8.40434783,16.9093478 8.59130435,16.4671739 C8.77847826,16.0247826 9.28847826,15.8178261 9.73108696,16.005 C10.1326087,16.1747826 10.5593478,16.2608696 11,16.2608696 C12.7980435,16.2608696 14.2608696,14.7980435 14.2608696,13 C14.2608696,11.2019565 12.7980435,9.73913043 11,9.73913043 C9.20195652,9.73913043 7.73913043,11.2019565 7.73913043,13 C7.73913043,13.4802174 7.34978261,13.8695652 6.86956522,13.8695652 C6.38934783,13.8695652 6,13.4802174 6,13 C6,10.2430435 8.24304348,8 11,8 C13.7569565,8 16,10.2430435 16,13 C16,15.7569565 13.7569565,18 11,18" id="Fill-1" fill="#09A8EB"></path>
            <g id="Group-5" transform="translate(0.000000, 2.000000)">
                <mask id="mask-2" fill="white">
                    <use xlink:href="#path-1"></use>
                </mask>
                <g id="Clip-4"></g>
                <path d="M3.27703895,17.9911084 C3.02658632,17.9911084 2.77790211,17.8874458 2.60304947,17.6855422 C0.924375789,15.7489157 -6.63157895e-05,13.2805301 -6.63157895e-05,10.7349398 C-6.63157895e-05,4.81575904 4.90862842,0 10.9420389,0 C15.2017232,0 19.1050705,2.45363855 20.8869758,6.25120482 C21.0907863,6.68645783 20.8967021,7.20151807 20.4532705,7.40190361 C20.01006,7.60207229 19.4846179,7.41166265 19.2803653,6.97640964 C17.7864916,3.79236145 14.5135863,1.73493976 10.9420389,1.73493976 C5.88369158,1.73493976 1.76835474,5.77236145 1.76835474,10.7349398 C1.76835474,12.8691325 2.54336526,14.9384819 3.95014421,16.5617349 C4.26669158,16.9267229 4.22137579,17.4740964 3.84934421,17.7844337 C3.68311263,17.9232289 3.47952316,17.9911084 3.27703895,17.9911084" id="Fill-3" fill="#09A8EB" mask="url(#mask-2)"></path>
            </g>
            <path d="M11.1401566,24 C9.11035314,24 7.13057078,23.4290563 5.41449613,22.3491508 C5.00269964,22.0898935 4.87654995,21.5420542 5.13235959,21.1252875 C5.38816923,20.7085209 5.92918689,20.5807806 6.34098337,20.8395935 C7.77865113,21.7444393 9.43812296,22.2227435 11.1401566,22.2227435 C16.1604757,22.2227435 20.2448738,18.0868453 20.2448738,13.0032251 C20.2448738,12.6633248 20.226445,12.3209808 20.1900261,11.9853014 C20.1373723,11.4976667 20.4851067,11.0586843 20.9668888,11.0051444 C21.4480128,10.9529375 21.8819678,11.3039457 21.9348409,11.7915805 C21.9780609,12.191241 22,12.5988992 22,13.0032251 C22,19.0667801 17.1284278,24 11.1401566,24" id="Fill-6" fill="#0983C8"></path>
            <path d="M13.8905837,20 C13.5574214,20 13.2378258,19.807467 13.0859233,19.4786798 C12.8755284,19.0236638 13.0647949,18.4802422 13.5087148,18.2646963 C14.7085884,17.6825402 15.7071858,16.6970901 16.3214677,15.4903978 C16.548543,15.0438123 17.0860953,14.8708744 17.5213414,15.1032811 C17.9570323,15.3359157 18.1262823,15.8864007 17.8989847,16.3327583 C17.1070013,17.8896556 15.8183882,19.1608294 14.2706735,19.91205 C14.1476836,19.9717466 14.0180217,20 13.8905837,20" id="Fill-8" fill="#09CCFE"></path>
            <path d="M18.1384189,14 C17.6626107,14 17.2768377,13.5919241 17.2768377,13.0886076 C17.2768377,9.63351899 14.6197215,6.82278481 11.3534673,6.82278481 C10.2769217,6.82278481 9.22277716,7.13129114 8.30562403,7.71458228 C7.89788075,7.97387342 7.36865453,7.83465823 7.1233193,7.40311392 C6.87819946,6.97179747 7.00980598,6.41174684 7.41776466,6.1524557 C8.60286952,5.39850633 9.96395234,5 11.3534673,5 C15.5696147,5 19,8.62848101 19,13.0886076 C19,13.5919241 18.614227,14 18.1384189,14" id="Fill-10" fill="#0983C8"></path>
            <path d="M11.0886076,21 C6.62848101,21 3,17.6305811 3,13.4888936 C3,12.0241221 3.45455696,10.6044172 4.3144557,9.38338631 C4.58946835,8.99217403 5.15453165,8.88215219 5.57582278,9.13816455 C5.99711392,9.39396533 6.11536709,9.91847329 5.83989873,10.3096856 C5.17435443,11.2546039 4.82278481,12.353976 4.82278481,13.4888936 C4.82278481,16.6972997 7.63351899,19.3073563 11.0886076,19.3073563 C11.5919241,19.3073563 12,19.6862969 12,20.1536782 C12,20.6210594 11.5919241,21 11.0886076,21" id="Fill-12" fill="#09CCFE"></path>
            <path d="M21.5,1.66666667 C21.040625,1.66666667 20.6666667,2.04041667 20.6666667,2.5 C20.6666667,2.95958333 21.040625,3.33333333 21.5,3.33333333 C21.959375,3.33333333 22.3333333,2.95958333 22.3333333,2.5 C22.3333333,2.04041667 21.959375,1.66666667 21.5,1.66666667 M21.5,5 C20.1214583,5 19,3.87854167 19,2.5 C19,1.12145833 20.1214583,0 21.5,0 C22.8785417,0 24,1.12145833 24,2.5 C24,3.87854167 22.8785417,5 21.5,5" id="Fill-14" fill="#09CCFE"></path>
        </g>
    </g>
</svg>