<?xml version="1.0" encoding="UTF-8"?>
<svg width="24px" height="24px" viewBox="0 0 24 24" version="1.1" xmlns="http://www.w3.org/2000/svg" xmlns:xlink="http://www.w3.org/1999/xlink">
    <title>app/Twitter</title>
    <g id="app/Twitter" stroke="none" stroke-width="1" fill="none" fill-rule="evenodd">
        <rect id="Rectangle" x="0" y="0" width="24" height="24"></rect>
        <path d="M23.206,5.185 C22.371,5.555 21.474,5.805 20.531,5.918 C21.493,5.342 22.231,4.428 22.579,3.34 C21.679,3.874 20.682,4.262 19.621,4.47 C18.771,3.566 17.561,3 16.221,3 C13.649,3 11.563,5.086 11.563,7.66 C11.563,8.024 11.605,8.378 11.683,8.72 C7.81,8.525 4.379,6.67 2.081,3.852 C1.681,4.542 1.451,5.342 1.451,6.194 C1.451,7.81 2.274,9.237 3.523,10.072 C2.759,10.047 2.041,9.838 1.413,9.489 L1.413,9.549 C1.413,11.806 3.018,13.689 5.15,14.117 C4.758,14.223 4.347,14.279 3.923,14.279 C3.623,14.279 3.33,14.251 3.046,14.197 C3.639,16.047 5.359,17.395 7.398,17.431 C5.803,18.681 3.794,19.426 1.612,19.426 C1.236,19.426 0.865,19.404 0.5,19.361 C2.562,20.684 5.01,21.454 7.64,21.454 C16.21,21.454 20.895,14.356 20.895,8.2 C20.895,8 20.89,7.798 20.881,7.598 C21.791,6.94 22.581,6.121 23.204,5.188 L23.206,5.185 Z" id="Path" fill="#1DA1F1" fill-rule="nonzero"></path>
    </g>
</svg>