<svg width="16" height="16" viewBox="0 0 16 16" fill="none" xmlns="http://www.w3.org/2000/svg">
	<path fill-rule="evenodd" clip-rule="evenodd" d="M14.4944 10.0647V4.92695C15.4049 4.69371 16.0298 3.85702 15.9953 2.9173C15.9608 1.97758 15.2762 1.18901 14.3511 1.02323C13.4259 0.857458 12.5104 1.35932 12.152 2.22865L8.97863 1.77694C8.85921 0.707309 7.91468 -0.0756481 6.84202 0.0058205C5.76937 0.0872891 4.95379 1.00393 4.99713 2.07933C5.04046 3.15474 5.92714 4.00272 7.00287 3.99753C7.08691 3.99481 7.17066 3.98646 7.25359 3.97255L8.14358 6.19614C8.05692 6.2355 7.97314 6.28092 7.89286 6.33206L3.98429 5.77441C3.87658 4.76725 3.03286 3.99993 2.02053 3.98846C1.00819 3.97698 0.147319 4.72497 0.0168223 5.72943C-0.113675 6.73389 0.527466 7.67721 1.50909 7.92505V12.0634C0.521951 12.313 -0.119661 13.2654 0.0195432 14.2745C0.158747 15.2836 1.03422 16.0266 2.05203 15.9993C3.06984 15.972 3.90429 15.1832 3.98928 14.1681L12.172 12.803C12.5468 13.66 13.4656 14.1423 14.3834 13.9639C15.3012 13.7854 15.9726 12.9938 15.9992 12.0587C16.0258 11.1236 15.4006 10.2951 14.4944 10.0647ZM3.93678 7.11111L7.05072 7.56215C6.84435 8.06546 6.86642 8.63484 7.11111 9.12029L3.27341 12.4444C3.08929 12.3159 2.88376 12.2219 2.66667 12.167V8.21821C3.23797 8.07002 3.70787 7.66044 3.93678 7.11111ZM13.3333 5.53215C13.1615 5.48842 12.9967 5.4215 12.8438 5.33333L10.6667 7.46404C10.987 7.98444 11.0229 8.62598 10.7627 9.17742L12.6671 10.6667C12.866 10.5206 13.0924 10.4142 13.3333 10.3534V5.53215ZM3.55556 13.269L7.43397 9.82033C8.10664 10.312 9.00876 10.2948 9.66355 9.77778L11.5556 11.3492C11.4702 11.5498 11.4183 11.764 11.402 11.9826L3.58893 13.3333C3.5834 13.3201 3.57659 13.3079 3.5698 13.2958C3.56488 13.287 3.55996 13.2782 3.55556 13.269ZM12.1634 3.12604L8.72542 2.66667C8.57154 3.00774 8.32063 3.30277 8 3.51964L9.01516 5.94802C9.35824 5.9654 9.69188 6.05942 9.98816 6.22222L12.4444 3.92335C12.2919 3.67903 12.1961 3.40735 12.1634 3.12604Z" fill="#313131"/>
</svg>
