<?xml version="1.0" encoding="UTF-8"?>
<svg width="20px" height="20px" viewBox="0 0 20 20" version="1.1" xmlns="http://www.w3.org/2000/svg" xmlns:xlink="http://www.w3.org/1999/xlink">
    <title>broken</title>
    <g id="Page-1" stroke="none" stroke-width="1" fill="none" fill-rule="evenodd">
        <g id="broken" fill-rule="nonzero">
            <rect id="Canvas" fill="#FF13DC" opacity="0" x="0" y="0" width="20" height="20"></rect>
            <path d="M15,10.0555556 C17.7307413,10.0555556 19.9444444,12.2692587 19.9444444,15 C19.9444444,17.7307413 17.7307413,19.9444444 15,19.9444444 C12.2692587,19.9444444 10.0555556,17.7307413 10.0555556,15 C10.0555556,12.2692587 12.2692587,10.0555556 15,10.0555556 Z M19.375,2.22222222 C19.7006041,2.20418762 19.9797359,2.45230479 20,2.77777778 L20,2.77777778 L20,10.3533333 C19.6654248,9.99164589 19.2929113,9.66700037 18.8888889,9.385 L18.8888889,9.385 L18.8888889,3.33333333 L1.11111111,3.33333333 L1.11111111,13.3333333 C1.11111111,13.3333333 3.95166667,8.88888889 5.43611111,8.88888889 C6.25002415,8.88888889 7.17452321,9.99202689 8.09936253,11.0995735 L8.40750368,11.4674119 C8.56142932,11.6499055 8.71502415,11.8291304 8.86777778,12 C8.40739143,12.9331043 8.16751878,13.9595008 8.16666667,15 C8.16687718,15.9574092 8.36925479,16.9039836 8.76055556,17.7777778 L8.76055556,17.7777778 L0.625,17.7777778 C0.299395867,17.7958124 0.0202640565,17.5476952 0,17.2222222 L0,17.2222222 L0,2.77777778 C0.0202640565,2.45230479 0.299395867,2.20418762 0.625,2.22222222 L0.625,2.22222222 Z M16.767767,12.8393959 C16.659288,12.730917 16.4834088,12.730917 16.3749299,12.8393959 L16.3749299,12.8393959 L15,14.2143258 L13.6250701,12.8393959 C13.5165912,12.730917 13.340712,12.730917 13.232233,12.8393959 L13.232233,12.8393959 L12.8393959,13.232233 C12.730917,13.340712 12.730917,13.5165912 12.8393959,13.6250701 L12.8393959,13.6250701 L14.2143258,15 L12.8393959,16.3749299 C12.730917,16.4834088 12.730917,16.659288 12.8393959,16.767767 L12.8393959,16.767767 L13.232233,17.1606041 C13.340712,17.269083 13.5165912,17.269083 13.6250701,17.1606041 L13.6250701,17.1606041 L15,15.7856742 L16.3749299,17.1606041 C16.4834088,17.269083 16.659288,17.269083 16.767767,17.1606041 L16.767767,17.1606041 L17.1606041,16.767767 C17.269083,16.659288 17.269083,16.4834088 17.1606041,16.3749299 L17.1606041,16.3749299 L15.7856742,15 L17.1606041,13.6250701 C17.269083,13.5165912 17.269083,13.340712 17.1606041,13.232233 L17.1606041,13.232233 Z M13.2222222,5.61111111 C13.9892844,5.61111111 14.6111111,6.23293785 14.6111111,7 C14.6111111,7.76706215 13.9892844,8.38888889 13.2222222,8.38888889 C12.4551601,8.38888889 11.8333333,7.76706215 11.8333333,7 C11.8333333,6.23293785 12.4551601,5.61111111 13.2222222,5.61111111 Z" id="Combined-Shape" fill="#999999"></path>
        </g>
    </g>
</svg>