<svg width="16" height="16" viewBox="0 0 16 16" fill="none" xmlns="http://www.w3.org/2000/svg">
	<path d="M8.95545 5.33322C8.95545 5.52222 8.89941 5.70696 8.79441 5.8641C8.68941 6.02124 8.54018 6.14372 8.36557 6.21604C8.19097 6.28837 7.99883 6.30729 7.81348 6.27042C7.62812 6.23355 7.45785 6.14254 7.32422 6.0089C7.19058 5.87527 7.09957 5.705 7.0627 5.51964C7.02583 5.33428 7.04475 5.14215 7.11708 4.96755C7.1894 4.79294 7.31188 4.64371 7.46902 4.53871C7.62616 4.43371 7.8109 4.37767 7.9999 4.37767C8.25332 4.37767 8.49637 4.47834 8.67557 4.65755C8.85478 4.83675 8.95545 5.0798 8.95545 5.33322ZM9.03699 10.6666H8.88878V7.28878C8.88877 7.24163 8.87004 7.19642 8.8367 7.16309C8.80336 7.12975 8.75815 7.11101 8.71101 7.111H6.96277C6.96277 7.111 6.44434 7.12533 6.44434 7.55545C6.44434 7.98536 6.96278 7.99989 6.96278 7.99989H7.11101V10.6666H6.96278C6.96278 10.6666 6.44434 10.6809 6.44434 11.111C6.44434 11.5409 6.96278 11.5554 6.96278 11.5554H9.03701C9.03701 11.5554 9.55545 11.5409 9.55545 11.111C9.55545 10.6809 9.03699 10.6666 9.03699 10.6666ZM7.9999 0.444336C6.50555 0.444336 5.04476 0.887462 3.80225 1.71768C2.55975 2.54789 1.59133 3.72791 1.01947 5.10851C0.44761 6.4891 0.297984 8.00827 0.589517 9.47391C0.88105 10.9395 1.60065 12.2858 2.65731 13.3425C3.71397 14.3991 5.06024 15.1187 6.52588 15.4103C7.99151 15.7018 9.51068 15.5522 10.8913 14.9803C12.2719 14.4085 13.4519 13.44 14.2821 12.1975C15.1123 10.955 15.5555 9.49424 15.5555 7.99989C15.5555 5.99603 14.7594 4.07425 13.3425 2.65731C11.9255 1.24037 10.0038 0.444336 7.9999 0.444336ZM7.9999 13.933C6.82643 13.933 5.67931 13.5851 4.70361 12.9331C3.72791 12.2812 2.96745 11.3545 2.51838 10.2704C2.06932 9.18624 1.95183 7.99328 2.18077 6.84236C2.4097 5.69144 2.97478 4.63425 3.80455 3.80449C4.63432 2.97472 5.69151 2.40965 6.84243 2.18072C7.99336 1.95179 9.18632 2.06929 10.2705 2.51836C11.3546 2.96743 12.2812 3.7279 12.9332 4.7036C13.5851 5.67931 13.9331 6.82642 13.9331 7.99989C13.9331 8.77905 13.7796 9.55057 13.4814 10.2704C13.1833 10.9903 12.7462 11.6443 12.1953 12.1953C11.6443 12.7462 10.9903 13.1833 10.2704 13.4814C9.55058 13.7796 8.77905 13.9331 7.9999 13.933Z" fill="#313131"/>
</svg>
