<?xml version="1.0" encoding="UTF-8"?>
<svg width="16px" height="16px" viewBox="0 0 16 16" version="1.1" xmlns="http://www.w3.org/2000/svg"
    xmlns:xlink="http://www.w3.org/1999/xlink">
    <path
        d="M8.94761842,11.4453729 C8.97153941,11.6793687 8.89079801,11.9119705 8.72704064,12.0808187 C8.56328326,12.249667 8.33326156,12.3374894 8.09864332,12.3207411 C7.8651239,12.3333132 7.63759447,12.2441878 7.47474198,12.0763533 C7.31188948,11.9085187 7.22965884,11.6784076 7.2492599,11.4453729 C7.24222835,10.9763842 7.61671865,10.5904935 8.0857074,10.5834619 C8.55469615,10.5764304 8.94058685,10.9509207 8.94761842,11.4199094 C8.94774005,11.4284002 8.94774005,11.436888 8.94761842,11.4453729 Z M7.97976144,3.65602072 C7.29654821,3.64154614 6.6209686,3.80189575 6.01713311,4.12185282 C5.965666,4.14912338 5.965666,4.20190957 5.965666,4.25513884 L5.965666,5.5457683 C5.96550521,5.57023391 5.9791362,5.59270513 6.00090881,5.60386511 C6.02268143,5.61502509 6.04888335,5.612971 6.06865091,5.5985545 C6.56212973,5.31003091 7.1237458,5.15862078 7.69537971,5.15999295 C8.48275933,5.15999295 8.7928739,5.49253904 8.7928739,5.97156769 C8.7928739,6.38417053 8.54742156,6.66349604 8.12167429,7.10249198 C7.50200118,7.74163413 7.12722439,8.14015428 7.12722439,8.7656655 C7.12491405,9.09790225 7.23412296,9.42131053 7.43737371,9.68413316 C7.48289858,9.72531408 7.54404003,9.7447375 7.60498465,9.7373798 L8.72821167,9.7373798 C8.75173584,9.74101566 8.77502853,9.72958164 8.78654053,9.70874706 C8.79805253,9.68791249 8.79533612,9.66210731 8.77973816,9.6441265 C8.6462067,9.42305024 8.5748345,9.17002547 8.57315439,8.91175712 C8.57315439,8.51321959 9.05092334,8.07422366 9.55446856,7.58156407 C10.0880624,7.12219196 10.3906461,6.44997109 10.3807254,5.74594927 C10.3807341,4.57494883 9.52874441,3.65602072 7.97976144,3.65602072 Z M15.3846154,7.99984863 C15.3846154,10.9866071 13.5854666,13.6792798 10.8260667,14.8222749 C8.06666676,15.96527 4.89045133,15.3334936 2.77848799,13.2215427 C0.666524644,11.1095918 0.0347295689,7.9333801 1.17770847,5.17397345 C2.32068738,2.4145668 5.01334951,0.615384615 8.00010793,0.615384615 L8.00010793,0.615384615 C12.0784418,0.615384615 15.3846154,3.92151474 15.3846154,7.99984863 Z M13.7989444,7.99984863 C13.7989444,5.65442994 12.3861289,3.53994668 10.2192493,2.64238244 C8.0523697,1.7448182 5.55817519,2.24093365 3.89970876,3.89939014 C2.24124233,5.55784664 1.74511193,8.05203817 2.64266318,10.2189232 C3.54021443,12.3858082 5.65468924,13.7986504 8.00010793,13.7986504 L8.00010793,13.7986504 C9.5380518,13.7986504 11.0130086,13.1877203 12.1005024,12.100233 C13.1879962,11.0127457 13.7989444,9.53779251 13.7989444,7.99984863 Z">
    </path>
</svg>